<svg width="18" height="18" viewBox="0 0 18 18" fill="none" xmlns="http://www.w3.org/2000/svg">
    <path d="M8.99102 0.666656C4.39102 0.666656 0.666016 4.39999 0.666016 8.99999C0.666016 13.6 4.39102 17.3333 8.99102 17.3333C13.5993 17.3333 17.3327 13.6 17.3327 8.99999C17.3327 4.39999 13.5993 0.666656 8.99102 0.666656ZM8.99935 15.6667C5.31602 15.6667 2.33268 12.6833 2.33268 8.99999C2.33268 5.31666 5.31602 2.33332 8.99935 2.33332C12.6827 2.33332 15.666 5.31666 15.666 8.99999C15.666 12.6833 12.6827 15.6667 8.99935 15.6667ZM9.41602 4.83332H8.16602V9.83332L12.541 12.4583L13.166 11.4333L9.41602 9.20832V4.83332Z" fill="#2F97D1"/>
    </svg>
    