<svg width="16" height="18" viewBox="0 0 16 18" fill="none" xmlns="http://www.w3.org/2000/svg">
    <path d="M0.5 0.666672L2.175 15.8583C2.275 16.6917 2.975 17.3333 3.83333 17.3333H12.1667C13.025 17.3333 13.725 16.6917 13.825 15.8583L15.5 0.666672H0.5ZM12.1667 15.6667L3.83333 15.675L2.90833 7.33334H13.0833L12.1667 15.6667ZM13.275 5.66667H2.725L2.35833 2.33334H13.6333L13.275 5.66667ZM8 14.8333C9.38333 14.8333 10.5 13.7167 10.5 12.3333C10.5 10.6667 8 7.83334 8 7.83334C8 7.83334 5.5 10.6667 5.5 12.3333C5.5 13.7167 6.61667 14.8333 8 14.8333ZM8 10.5917C8.49167 11.35 8.83333 12.0333 8.83333 12.3333C8.83333 12.7917 8.45833 13.1667 8 13.1667C7.54167 13.1667 7.16667 12.7917 7.16667 12.3333C7.16667 12.025 7.50833 11.3417 8 10.5917Z" fill="#2F97D1"/>
    </svg>