<svg width="18" height="18" viewBox="0 0 18 18" fill="none" xmlns="http://www.w3.org/2000/svg">
    <path d="M8.99102 0.666656C4.39102 0.666656 0.666016 4.39999 0.666016 8.99999C0.666016 13.6 4.39102 17.3333 8.99102 17.3333C13.5993 17.3333 17.3327 13.6 17.3327 8.99999C17.3327 4.39999 13.5993 0.666656 8.99102 0.666656ZM14.766 5.66666H12.3077C12.041 4.62499 11.6577 3.62499 11.1577 2.69999C12.691 3.22499 13.966 4.29166 14.766 5.66666ZM8.99935 2.36666C9.69102 3.36666 10.2327 4.47499 10.591 5.66666H7.40768C7.76602 4.47499 8.30768 3.36666 8.99935 2.36666ZM2.54935 10.6667C2.41602 10.1333 2.33268 9.57499 2.33268 8.99999C2.33268 8.42499 2.41602 7.86666 2.54935 7.33332H5.36602C5.29935 7.88332 5.24935 8.43332 5.24935 8.99999C5.24935 9.56666 5.29935 10.1167 5.36602 10.6667H2.54935ZM3.23268 12.3333H5.69102C5.95768 13.375 6.34102 14.375 6.84102 15.3C5.30768 14.775 4.03268 13.7167 3.23268 12.3333ZM5.69102 5.66666H3.23268C4.03268 4.28332 5.30768 3.22499 6.84102 2.69999C6.34102 3.62499 5.95768 4.62499 5.69102 5.66666ZM8.99935 15.6333C8.30768 14.6333 7.76602 13.525 7.40768 12.3333H10.591C10.2327 13.525 9.69102 14.6333 8.99935 15.6333ZM10.9493 10.6667H7.04935C6.97435 10.1167 6.91602 9.56666 6.91602 8.99999C6.91602 8.43332 6.97435 7.87499 7.04935 7.33332H10.9493C11.0243 7.87499 11.0827 8.43332 11.0827 8.99999C11.0827 9.56666 11.0243 10.1167 10.9493 10.6667ZM11.1577 15.3C11.6577 14.375 12.041 13.375 12.3077 12.3333H14.766C13.966 13.7083 12.691 14.775 11.1577 15.3ZM12.6327 10.6667C12.6994 10.1167 12.7493 9.56666 12.7493 8.99999C12.7493 8.43332 12.6994 7.88332 12.6327 7.33332H15.4493C15.5827 7.86666 15.666 8.42499 15.666 8.99999C15.666 9.57499 15.5827 10.1333 15.4493 10.6667H12.6327Z" fill="#2F97D1"/>
    </svg>
    