<svg width="96" height="96" xmlns="http://www.w3.org/2000/svg" xmlns:xlink="http://www.w3.org/1999/xlink" overflow="hidden"><defs><clipPath id="clip0"><rect x="592" y="312" width="96" height="96"/></clipPath></defs><g clip-path="url(#clip0)" transform="translate(-592 -312)"><path d="M636.9 384.4C636.4 384.4 635.8 384.3 635.4 383.9 634.6 383.2 634.5 381.9 635.2 381.1L639.1 376.6C639.8 375.8 641.1 375.7 641.9 376.4 642.7 377.1 642.8 378.4 642.1 379.2L638.2 383.7C637.9 384.1 637.4 384.3 636.9 384.4Z" fill="#2E97D2" fill-rule="nonzero" fill-opacity="1"/><path d="M630.8 382.1C630.1 382.2 629.5 382 628.9 381.5 627.9 380.6 627.8 379 628.7 378L633.3 372.7C634.2 371.7 635.8 371.6 636.8 372.5 637.8 373.4 637.9 375 637 376L632.4 381.3C632 381.8 631.4 382.1 630.8 382.1Z" fill="#2E97D2" fill-rule="nonzero" fill-opacity="1"/><path d="M624.5 378.4C623.7 378.5 622.9 378.2 622.3 377.7 621.1 376.6 620.9 374.7 622 373.5L626.6 368.2C627.7 367 629.6 366.8 630.8 367.9 632 369 632.2 370.9 631.1 372.1L626.5 377.4C626 378 625.2 378.4 624.5 378.4Z" fill="#2E97D2" fill-rule="nonzero" fill-opacity="1"/><path d="M617.2 374.7C616.4 374.8 615.6 374.5 615 374 613.8 372.9 613.6 371 614.7 369.8L620 363.8C621.1 362.6 623 362.4 624.2 363.5 625.4 364.6 625.6 366.5 624.5 367.7L619.2 373.7C618.6 374.3 617.9 374.6 617.2 374.7Z" fill="#2E97D2" fill-rule="nonzero" fill-opacity="1"/><path d="M596.6 352.7 604.3 357.4C605.2 358 606.5 357.7 607 356.7L616.3 341.3C616.9 340.4 616.6 339.1 615.6 338.6L608 333.9 596.6 352.7Z" fill="#2E97D2" fill-rule="nonzero" fill-opacity="1"/><path d="M661.4 365.8 645.3 352 644.2 351 637.3 358.9C636.3 360.1 634.9 360.8 633.3 360.9 633.1 360.9 632.9 360.9 632.8 360.9 631.3 360.9 629.9 360.4 628.9 359.4 626.4 357.2 626.2 353.4 628.3 350.9L634.2 344.1C629.6 343.5 623.7 345.9 617.6 342.9L608.9 357.3 615.7 365.2 618.3 362.2C619.2 361.1 620.6 360.5 622.1 360.5 623.3 360.5 624.5 360.9 625.4 361.7 626.5 362.6 627 363.9 627.1 365.3 627.6 365.1 628.2 365 628.8 365 630 365 631.2 365.4 632.1 366.2 633.2 367.2 633.8 368.5 633.8 369.9 634.2 369.8 634.7 369.7 635.1 369.7 636.2 369.7 637.2 370.1 638.1 370.8 639 371.6 639.5 372.7 639.6 373.9 639.9 373.8 640.3 373.7 640.7 373.7 641.7 373.7 642.6 374 643.3 374.7 644.1 375.4 644.6 376.4 644.7 377.4 644.8 378.5 644.4 379.5 643.7 380.3L640.3 384.2 641.7 385.3C642.4 385.7 643.2 386 644.1 385.9 646.3 385.7 647.9 383.8 647.7 381.6 647.7 381.6 647.7 381.5 647.7 381.5 648 381.6 648.4 381.6 648.7 381.6 650.9 381.4 652.5 379.5 652.3 377.3 652.3 377.3 652.3 377.2 652.3 377.2 652.6 377.3 653 377.3 653.3 377.3 655.5 377.1 657.1 375.2 656.9 373 656.9 372.8 656.8 372.6 656.8 372.4 657.4 372.7 658.1 372.9 658.9 372.8 661.1 372.6 662.7 370.7 662.5 368.5 662.6 367.4 662.1 366.5 661.4 365.8Z" fill="#2E97D2" fill-rule="nonzero" fill-opacity="1"/><path d="M683.4 352.7 675.7 357.4C674.8 358 673.5 357.7 673 356.7L663.7 341.3C663.1 340.4 663.4 339.1 664.4 338.6L672.1 333.9 683.4 352.7Z" fill="#2E97D2" fill-rule="nonzero" fill-opacity="1"/><path d="M662.5 343.3C654.2 346.3 648.2 343.4 641.5 342.1 641.4 342.1 641 342 641 342 639.8 341.9 638.5 342.3 637.6 343.3L629.7 352.3C628.2 354 628.4 356.5 630.1 357.9 631 358.6 632 359 633.1 358.9 634.1 358.8 635.1 358.4 635.8 357.5 635.8 357.5 644 348.1 644 348.1L662.7 364.2C663.2 364.7 663.4 364.9 663.8 365.5L671 357.2 662.5 343.3Z" fill="#2E97D2" fill-rule="nonzero" fill-opacity="1"/></g></svg>