<svg width="20" height="20" viewBox="0 0 20 20" fill="none" xmlns="http://www.w3.org/2000/svg">
<path d="M9.1665 5.83329H10.8332V7.49996H9.1665V5.83329ZM9.1665 9.16663H10.8332V14.1666H9.1665V9.16663ZM9.99984 1.66663C5.39984 1.66663 1.6665 5.39996 1.6665 9.99996C1.6665 14.6 5.39984 18.3333 9.99984 18.3333C14.5998 18.3333 18.3332 14.6 18.3332 9.99996C18.3332 5.39996 14.5998 1.66663 9.99984 1.66663ZM9.99984 16.6666C6.32484 16.6666 3.33317 13.675 3.33317 9.99996C3.33317 6.32496 6.32484 3.33329 9.99984 3.33329C13.6748 3.33329 16.6665 6.32496 16.6665 9.99996C16.6665 13.675 13.6748 16.6666 9.99984 16.6666Z" fill="#2F97D1"/>
</svg>
