<svg width="105" height="34" viewBox="0 0 105 34" fill="none" xmlns="http://www.w3.org/2000/svg">
<path fill-rule="evenodd" clip-rule="evenodd" d="M31.4026 27.0643V17.7176H32.785V19.1855C33.4299 17.9975 34.5589 17.3721 35.9641 17.3721C37.4154 17.3721 38.4522 17.9975 39.0051 19.2066C39.8114 17.9764 40.9632 17.3721 42.4837 17.3721C44.6032 17.3721 45.8934 18.6674 45.8934 20.7397V27.0643H44.5111V21.2578C44.5111 19.4223 43.7048 18.4948 42.115 18.4948C40.1337 18.4948 39.3506 19.7247 39.3506 22.1424V27.0643H37.9683V21.2578C37.9683 19.4223 37.3004 18.4948 35.6186 18.4948C33.6141 18.4948 32.785 19.7247 32.785 22.1424V27.0643H31.4026Z" fill="#2F97D1"/>
<path fill-rule="evenodd" clip-rule="evenodd" d="M50.619 17.7173L53.4758 25.0349L56.1018 17.7173H57.5762L52.4158 31.7701H50.9874L52.7384 26.9988L49.1445 17.7173H50.619Z" fill="#2F97D1"/>
<path d="M62.591 17.8152V17.2517H60.2148V27.5297H62.591V22.1422C62.591 20.9659 62.7963 20.1715 63.1656 19.6797C63.509 19.2224 64.0461 18.9602 64.9277 18.9602C65.6669 18.9602 66.0836 19.1591 66.3387 19.471C66.6163 19.8105 66.7805 20.3755 66.7805 21.2576V27.5297H69.1567V22.1422C69.1567 20.962 69.3517 20.1661 69.7096 19.674C70.0397 19.2201 70.5572 18.9602 71.4242 18.9602C72.1104 18.9602 72.55 19.1556 72.8328 19.4815C73.1313 19.8255 73.3233 20.3922 73.3233 21.2576V27.5297H75.6995V20.7395C75.6995 19.614 75.3479 18.6475 74.6538 17.9589C73.9564 17.267 72.9641 16.9062 71.7929 16.9062C70.3797 16.9062 69.2332 17.3857 68.3718 18.3374C68.1071 17.976 67.7831 17.6756 67.3996 17.4442C66.7957 17.0799 66.0762 16.9062 65.2733 16.9062C64.2289 16.9062 63.3076 17.2178 62.591 17.8152Z" fill="#2F97D1"/>
<path d="M79.4085 17.2517H81.8307V27.5297H79.4085V17.2517Z" fill="#2F97D1"/>
<path d="M84.3397 17.2518H93.3175L87.7884 25.455H93.0742V27.5298H83.5379L89.1131 19.3477H84.3397V17.2518Z" fill="#2F97D1"/>
<path d="M95.2379 17.2518H97.6141V22.3801C97.6141 23.677 97.7743 24.5303 98.1256 25.0548C98.4398 25.5239 98.9585 25.8002 99.9508 25.8002C100.944 25.8002 101.47 25.5235 101.789 25.0525C102.145 24.5281 102.311 23.675 102.311 22.3801V17.2518H104.687V23.0487C104.687 24.5803 104.309 25.8172 103.488 26.6738C102.659 27.5395 101.452 27.9404 99.974 27.9404C98.5067 27.9404 97.2956 27.5391 96.4586 26.6759C95.629 25.8204 95.2379 24.5837 95.2379 23.0487V17.2518Z" fill="#2F97D1"/>
<path fill-rule="evenodd" clip-rule="evenodd" d="M22.0555 17.3829C21.0504 15.4351 19.6846 13.4004 18.2386 11.2461C15.94 7.822 13.4114 4.05518 11.989 0C10.5665 4.05518 8.03833 7.822 5.73968 11.2461C4.29338 13.4004 2.92758 15.4351 1.92285 17.3829C0.834315 19.4928 0.327148 21.1919 0.327148 22.7303C0.327148 24.2063 0.635556 25.6379 1.2431 26.9851C1.83043 28.2867 2.67151 29.4563 3.74282 30.4608C4.81413 31.4656 6.06134 32.2543 7.45033 32.8056C8.88703 33.3758 10.4142 33.6654 11.989 33.6667C11.1578 31.2964 9.67975 29.0946 8.33614 27.0931C7.49075 25.8338 6.6924 24.6446 6.10507 23.506C5.46871 22.2725 5.17256 21.2795 5.17256 20.3802C5.17256 19.5173 5.35244 18.6804 5.70788 17.8932C6.05107 17.1321 6.54267 16.4486 7.16909 15.8613C7.79518 15.2743 8.52429 14.813 9.33622 14.4908C10.176 14.1574 11.0684 13.988 11.989 13.9877C12.9096 13.988 13.8023 14.1574 14.6424 14.4908C15.454 14.813 16.1831 15.2743 16.8092 15.8613C17.4356 16.4486 17.9272 17.1321 18.2704 17.8932C18.6256 18.6804 18.8058 19.5173 18.8058 20.3802C18.8058 21.2795 18.5093 22.2725 17.8732 23.506C17.2859 24.6446 16.4872 25.8338 15.6422 27.0931C14.2982 29.0946 12.8205 31.2964 11.989 33.6667C13.5638 33.6654 15.0913 33.3758 16.528 32.8056C17.9166 32.2543 19.1639 31.4656 20.2352 30.4608C21.3068 29.4563 22.1476 28.2867 22.7349 26.9851C23.3428 25.6379 23.6508 24.2063 23.6508 22.7303C23.6508 21.1919 23.144 19.4928 22.0555 17.3829Z" fill="#2F97D1"/>
<path fill-rule="evenodd" clip-rule="evenodd" d="M11.9938 17.4849C10.2874 17.4849 8.90405 18.7811 8.90405 20.38C8.90405 21.979 10.2874 23.2755 11.9938 23.2755C13.7004 23.2755 15.0835 21.979 15.0835 20.38C15.0835 18.7811 13.7004 17.4849 11.9938 17.4849Z" fill="#2F97D1"/>
</svg>
