<svg width="30" height="42" viewBox="0 0 30 42" fill="none" xmlns="http://www.w3.org/2000/svg">
    <path fill-rule="evenodd" clip-rule="evenodd" d="M12.4264 1.25696C18.4725 0.0431335 24.5438 3.22132 26.9383 8.85356C27.6128 10.4348 27.9583 12.1346 27.954 13.8513C27.954 15.6592 27.3907 17.6549 26.191 20.1324C25.0829 22.4056 23.5762 24.7799 21.9822 27.2916L21.9517 27.3397C19.3927 31.3591 16.584 35.7821 15.0051 40.5455C13.4222 35.7909 10.6178 31.3723 8.06663 27.3526L8.05846 27.3397C6.44571 24.8102 4.94374 22.4201 3.81726 20.1324C2.60817 17.6549 2.04493 15.6592 2.04493 13.8513C2.03711 7.73988 6.38043 2.4708 12.4264 1.25696ZM9.13612 13.8513C9.13612 17.0645 11.7654 19.6692 15.0088 19.6692C18.2523 19.6692 20.8816 17.0645 20.8816 13.8513C20.8816 10.6381 18.2523 8.03332 15.0088 8.03332C11.7654 8.03332 9.13612 10.6381 9.13612 13.8513Z" fill="#F3B01D"/>
    <path d="M26.9383 8.85356L26.7082 8.95138L26.7083 8.95167L26.9383 8.85356ZM12.4264 1.25696L12.3772 1.01186V1.01186L12.4264 1.25696ZM27.954 13.8513L27.704 13.8506V13.8513H27.954ZM26.191 20.1324L26.4158 20.2419L26.416 20.2413L26.191 20.1324ZM21.9822 27.2916L21.7711 27.1577L21.9822 27.2916ZM21.9517 27.3397L22.1626 27.474L22.1628 27.4737L21.9517 27.3397ZM15.0051 40.5455L14.7679 40.6244L15.0056 41.3385L15.2424 40.6241L15.0051 40.5455ZM8.06663 27.3526L8.2777 27.2186L8.2777 27.2186L8.06663 27.3526ZM8.05846 27.3397L8.26953 27.2058L8.26926 27.2053L8.05846 27.3397ZM3.81726 20.1324L3.59259 20.242L3.59298 20.2428L3.81726 20.1324ZM2.04493 13.8513H2.29493L2.29493 13.851L2.04493 13.8513ZM27.1683 8.75575C24.7269 3.01318 18.5382 -0.225052 12.3772 1.01186L12.4757 1.50207C18.4067 0.311319 24.3606 3.42947 26.7082 8.95138L27.1683 8.75575ZM28.204 13.8519C28.2084 12.1013 27.8561 10.3679 27.1682 8.75546L26.7083 8.95167C27.3696 10.5017 27.7082 12.168 27.704 13.8506L28.204 13.8519ZM26.416 20.2413C27.6242 17.7464 28.204 15.7117 28.204 13.8513H27.704C27.704 15.6066 27.1573 17.5634 25.966 20.0234L26.416 20.2413ZM22.1933 27.4256C23.7853 24.9169 25.3003 22.5302 26.4158 20.2419L25.9663 20.0228C24.8655 22.281 23.3671 24.6428 21.7711 27.1577L22.1933 27.4256ZM22.1628 27.4737L22.1933 27.4256L21.7711 27.1577L21.7406 27.2058L22.1628 27.4737ZM15.2424 40.6241C16.8099 35.8951 19.6007 31.4979 22.1626 27.474L21.7408 27.2055C19.1847 31.2203 16.3581 35.6691 14.7678 40.4668L15.2424 40.6241ZM7.85555 27.4866C10.4097 31.511 13.1963 35.9039 14.7679 40.6244L15.2423 40.4665C13.6481 35.6779 10.8259 31.2335 8.2777 27.2186L7.85555 27.4866ZM7.84739 27.4737L7.85555 27.4866L8.2777 27.2186L8.26953 27.2058L7.84739 27.4737ZM3.59298 20.2428C4.72649 22.5448 6.23593 24.9462 7.84766 27.4741L8.26926 27.2053C6.6555 24.6742 5.16099 22.2954 4.04155 20.0219L3.59298 20.2428ZM1.79493 13.8513C1.79493 15.7119 2.37479 17.7467 3.59259 20.242L4.04193 20.0227C2.84156 17.5631 2.29493 15.6065 2.29493 13.8513H1.79493ZM12.3772 1.01186C6.2159 2.24884 1.78696 7.61939 1.79493 13.8516L2.29493 13.851C2.28727 7.86037 6.54497 2.69275 12.4757 1.50207L12.3772 1.01186ZM15.0088 19.4192C11.9013 19.4192 9.38612 16.9242 9.38612 13.8513H8.88612C8.88612 17.2047 11.6296 19.9192 15.0088 19.9192V19.4192ZM20.6316 13.8513C20.6316 16.9242 18.1164 19.4192 15.0088 19.4192V19.9192C18.3881 19.9192 21.1316 17.2047 21.1316 13.8513H20.6316ZM15.0088 8.28332C18.1164 8.28332 20.6316 10.7784 20.6316 13.8513H21.1316C21.1316 10.4978 18.3881 7.78332 15.0088 7.78332V8.28332ZM9.38612 13.8513C9.38612 10.7784 11.9013 8.28332 15.0088 8.28332V7.78332C11.6296 7.78332 8.88612 10.4978 8.88612 13.8513H9.38612Z" fill="white"/>
    <path fill-rule="evenodd" clip-rule="evenodd" d="M15.0094 19.6692C11.766 19.6692 9.13672 17.0645 9.13672 13.8513C9.13672 10.6381 11.766 8.03333 15.0094 8.03333C18.2528 8.03333 20.8821 10.6381 20.8821 13.8513C20.8821 17.0645 18.2528 19.6692 15.0094 19.6692Z" fill="white"/>
</svg>
