<svg width="16" height="24" viewBox="0 0 16 24" fill="none" xmlns="http://www.w3.org/2000/svg">
<path fill-rule="evenodd" clip-rule="evenodd" d="M6.62764 1.13705C9.85218 0.489671 13.0902 2.18471 14.3673 5.18857C14.727 6.03189 14.9113 6.93847 14.909 7.85402C14.909 8.81822 14.6086 9.88262 13.9687 11.2039C13.3777 12.4163 12.5742 13.6826 11.7241 15.0222L11.7078 15.0479C10.343 17.1915 8.84501 19.5504 8.00291 22.0909C7.1587 19.5551 5.66303 17.1985 4.30241 15.0547L4.29804 15.0479C3.43791 13.6988 2.63686 12.4241 2.03607 11.2039C1.39122 9.88262 1.09083 8.81822 1.09083 7.85402C1.08666 4.5946 3.40309 1.78442 6.62764 1.13705ZM4.8728 7.85402C4.8728 9.56771 6.27509 10.9569 8.00491 10.9569C9.73473 10.9569 11.137 9.56771 11.137 7.85402C11.137 6.14033 9.73473 4.75111 8.00491 4.75111C6.27509 4.75111 4.8728 6.14033 4.8728 7.85402Z" fill="#2F97D1"/>
<path d="M14.3673 5.18857L14.1372 5.28638L14.1373 5.28667L14.3673 5.18857ZM6.62764 1.13705L6.67685 1.38216L6.62764 1.13705ZM14.909 7.85402L14.659 7.85339V7.85402H14.909ZM13.9687 11.2039L14.1935 11.3135L14.1938 11.3129L13.9687 11.2039ZM11.7241 15.0222L11.9351 15.1562L11.9351 15.1562L11.7241 15.0222ZM11.7078 15.0479L11.9187 15.1821L11.9189 15.1818L11.7078 15.0479ZM8.00291 22.0909L7.76571 22.1699L8.00342 22.8839L8.24021 22.1696L8.00291 22.0909ZM4.30241 15.0547L4.09133 15.1887L4.09133 15.1887L4.30241 15.0547ZM4.29804 15.0479L4.50912 14.9139L4.50884 14.9135L4.29804 15.0479ZM2.03607 11.2039L1.81139 11.3136L1.81178 11.3144L2.03607 11.2039ZM1.09083 7.85402H1.34083L1.34083 7.8537L1.09083 7.85402ZM14.5973 5.09076C13.2734 1.97656 9.91791 0.221486 6.57843 0.891939L6.67685 1.38216C9.78645 0.757856 12.907 2.39285 14.1372 5.28638L14.5973 5.09076ZM15.159 7.85465C15.1614 6.90513 14.9703 5.96495 14.5972 5.09047L14.1373 5.28667C14.4838 6.09882 14.6612 6.97182 14.659 7.85339L15.159 7.85465ZM14.1938 11.3129C14.8421 9.97411 15.159 8.87079 15.159 7.85402H14.659C14.659 8.76566 14.3751 9.79113 13.7437 11.095L14.1938 11.3129ZM11.9351 15.1562C12.7833 13.8196 13.5951 12.5409 14.1935 11.3135L13.744 11.0944C13.1604 12.2917 12.365 13.5456 11.513 14.8882L11.9351 15.1562ZM11.9189 15.1818L11.9351 15.1562L11.513 14.8882L11.4967 14.9139L11.9189 15.1818ZM8.24021 22.1696C9.07093 19.6635 10.551 17.3303 11.9187 15.1821L11.4969 14.9136C10.135 17.0527 8.6191 19.4374 7.7656 22.0122L8.24021 22.1696ZM4.09133 15.1887C5.45497 17.3373 6.93284 19.6682 7.76571 22.1699L8.24011 22.0119C7.38456 19.4421 5.87109 17.0598 4.51348 14.9208L4.09133 15.1887ZM4.08696 15.1818L4.09133 15.1887L4.51348 14.9208L4.50912 14.9139L4.08696 15.1818ZM1.81178 11.3144C2.41961 12.5488 3.22813 13.8348 4.08724 15.1823L4.50884 14.9135C3.64769 13.5628 2.85411 12.2993 2.26035 11.0935L1.81178 11.3144ZM0.840826 7.85402C0.840826 8.87093 1.15783 9.97441 1.8114 11.3136L2.26074 11.0943C1.62461 9.79083 1.34083 8.76551 1.34083 7.85402H0.840826ZM6.57843 0.891939C3.23856 1.56247 0.836502 4.47411 0.840826 7.85434L1.34083 7.8537C1.33681 4.71509 3.56763 2.00638 6.67685 1.38216L6.57843 0.891939ZM8.00491 10.7069C6.41095 10.7069 5.1228 9.42743 5.1228 7.85402H4.6228C4.6228 9.70798 6.13923 11.2069 8.00491 11.2069V10.7069ZM10.887 7.85402C10.887 9.42743 9.59887 10.7069 8.00491 10.7069V11.2069C9.87059 11.2069 11.387 9.70798 11.387 7.85402H10.887ZM8.00491 5.00111C9.59887 5.00111 10.887 6.2806 10.887 7.85402H11.387C11.387 6.00005 9.87059 4.50111 8.00491 4.50111V5.00111ZM5.1228 7.85402C5.1228 6.2806 6.41095 5.00111 8.00491 5.00111V4.50111C6.13923 4.50111 4.6228 6.00005 4.6228 7.85402H5.1228Z" fill="white"/>
<path fill-rule="evenodd" clip-rule="evenodd" d="M8.00492 10.9568C6.2751 10.9568 4.8728 9.56758 4.8728 7.85389C4.8728 6.1402 6.2751 4.75098 8.00492 4.75098C9.73474 4.75098 11.137 6.1402 11.137 7.85389C11.137 9.56758 9.73474 10.9568 8.00492 10.9568Z" fill="white"/>
</svg>
