
<svg width="28" height="42" viewBox="0 0 28 42" fill="none" xmlns="http://www.w3.org/2000/svg">
<path fill-rule="evenodd" clip-rule="evenodd" d="M11.4264 1.25696C17.4725 0.0431335 23.5438 3.22132 25.9383 8.85356C26.6128 10.4348 26.9583 12.1346 26.954 13.8513C26.954 15.6592 26.3907 17.6549 25.191 20.1324C24.0829 22.4056 22.5762 24.7799 20.9822 27.2916L20.9517 27.3397C18.3927 31.3591 15.584 35.7821 14.0051 40.5455C12.4222 35.7909 9.6178 31.3723 7.06663 27.3526L7.05846 27.3397C5.44571 24.8102 3.94374 22.4201 2.81726 20.1324C1.60817 17.6549 1.04493 15.6592 1.04493 13.8513C1.03711 7.73988 5.38043 2.4708 11.4264 1.25696ZM8.13612 13.8513C8.13612 17.0645 10.7654 19.6692 14.0088 19.6692C17.2523 19.6692 19.8816 17.0645 19.8816 13.8513C19.8816 10.6381 17.2523 8.03332 14.0088 8.03332C10.7654 8.03332 8.13612 10.6381 8.13612 13.8513Z" fill="#F3B01D"/>
<path d="M25.9383 8.85356L25.7082 8.95138L25.7083 8.95167L25.9383 8.85356ZM11.4264 1.25696L11.3772 1.01186V1.01186L11.4264 1.25696ZM26.954 13.8513L26.704 13.8506V13.8513H26.954ZM25.191 20.1324L25.4158 20.2419L25.416 20.2413L25.191 20.1324ZM20.9822 27.2916L20.7711 27.1577L20.9822 27.2916ZM20.9517 27.3397L21.1626 27.474L21.1628 27.4737L20.9517 27.3397ZM14.0051 40.5455L13.7679 40.6244L14.0056 41.3385L14.2424 40.6241L14.0051 40.5455ZM7.06663 27.3526L7.2777 27.2186L7.2777 27.2186L7.06663 27.3526ZM7.05846 27.3397L7.26953 27.2058L7.26926 27.2053L7.05846 27.3397ZM2.81726 20.1324L2.59259 20.242L2.59298 20.2428L2.81726 20.1324ZM1.04493 13.8513H1.29493L1.29493 13.851L1.04493 13.8513ZM26.1683 8.75575C23.7269 3.01318 17.5382 -0.225052 11.3772 1.01186L11.4757 1.50207C17.4067 0.311319 23.3606 3.42947 25.7082 8.95138L26.1683 8.75575ZM27.204 13.8519C27.2084 12.1013 26.8561 10.3679 26.1682 8.75546L25.7083 8.95167C26.3696 10.5017 26.7082 12.168 26.704 13.8506L27.204 13.8519ZM25.416 20.2413C26.6242 17.7464 27.204 15.7117 27.204 13.8513H26.704C26.704 15.6066 26.1573 17.5634 24.966 20.0234L25.416 20.2413ZM21.1933 27.4256C22.7853 24.9169 24.3003 22.5302 25.4158 20.2419L24.9663 20.0228C23.8655 22.281 22.3671 24.6428 20.7711 27.1577L21.1933 27.4256ZM21.1628 27.4737L21.1933 27.4256L20.7711 27.1577L20.7406 27.2058L21.1628 27.4737ZM14.2424 40.6241C15.8099 35.8951 18.6007 31.4979 21.1626 27.474L20.7408 27.2055C18.1847 31.2203 15.3581 35.6691 13.7678 40.4668L14.2424 40.6241ZM6.85555 27.4866C9.40974 31.511 12.1963 35.9039 13.7679 40.6244L14.2423 40.4665C12.6481 35.6779 9.82586 31.2335 7.2777 27.2186L6.85555 27.4866ZM6.84739 27.4737L6.85555 27.4866L7.2777 27.2186L7.26953 27.2058L6.84739 27.4737ZM2.59298 20.2428C3.72649 22.5448 5.23593 24.9462 6.84766 27.4741L7.26926 27.2053C5.6555 24.6742 4.16099 22.2954 3.04155 20.0219L2.59298 20.2428ZM0.794932 13.8513C0.794932 15.7119 1.37479 17.7467 2.59259 20.242L3.04193 20.0227C1.84156 17.5631 1.29493 15.6065 1.29493 13.8513H0.794932ZM11.3772 1.01186C5.2159 2.24884 0.786959 7.61939 0.794933 13.8516L1.29493 13.851C1.28727 7.86037 5.54497 2.69275 11.4757 1.50207L11.3772 1.01186ZM14.0088 19.4192C10.9013 19.4192 8.38612 16.9242 8.38612 13.8513H7.88612C7.88612 17.2047 10.6296 19.9192 14.0088 19.9192V19.4192ZM19.6316 13.8513C19.6316 16.9242 17.1164 19.4192 14.0088 19.4192V19.9192C17.3881 19.9192 20.1316 17.2047 20.1316 13.8513H19.6316ZM14.0088 8.28332C17.1164 8.28332 19.6316 10.7784 19.6316 13.8513H20.1316C20.1316 10.4978 17.3881 7.78332 14.0088 7.78332V8.28332ZM8.38612 13.8513C8.38612 10.7784 10.9013 8.28332 14.0088 8.28332V7.78332C10.6296 7.78332 7.88612 10.4978 7.88612 13.8513H8.38612Z" fill="white"/>
</svg>
