<svg width="20" height="20" viewBox="0 0 20 20" fill="none" xmlns="http://www.w3.org/2000/svg">
<path d="M9.99984 3.33329C11.6082 3.33329 14.1665 4.49996 14.1665 7.62496C14.1665 9.42496 12.7332 11.5166 9.99984 13.725C7.2665 11.5166 5.83317 9.41663 5.83317 7.62496C5.83317 4.49996 8.3915 3.33329 9.99984 3.33329ZM9.99984 1.66663C7.27484 1.66663 4.1665 3.71663 4.1665 7.62496C4.1665 10.225 6.10817 12.9666 9.99984 15.8333C13.8915 12.9666 15.8332 10.225 15.8332 7.62496C15.8332 3.71663 12.7248 1.66663 9.99984 1.66663Z" fill="#2F97D1"/>
<path d="M9.99984 5.83329C9.08317 5.83329 8.33317 6.58329 8.33317 7.49996C8.33317 8.41663 9.08317 9.16663 9.99984 9.16663C10.4419 9.16663 10.8658 8.99103 11.1783 8.67847C11.4909 8.36591 11.6665 7.94199 11.6665 7.49996C11.6665 7.05793 11.4909 6.63401 11.1783 6.32145C10.8658 6.00889 10.4419 5.83329 9.99984 5.83329ZM4.1665 16.6666H15.8332V18.3333H4.1665V16.6666Z" fill="#2F97D1"/>
</svg>
