<svg width="18" height="18" viewBox="0 0 18 18" fill="none" xmlns="http://www.w3.org/2000/svg">
<path d="M12.5862 11.2549H11.8004L11.5219 10.9849C12.4967 9.84488 13.0836 8.36488 13.0836 6.75488C13.0836 3.16488 10.189 0.254883 6.61814 0.254883C3.04723 0.254883 0.15271 3.16488 0.15271 6.75488C0.15271 10.3449 3.04723 13.2549 6.61814 13.2549C8.21957 13.2549 9.6917 12.6649 10.8256 11.6849L11.0942 11.9649V12.7549L16.0676 17.7449L17.5497 16.2549L12.5862 11.2549ZM6.61814 11.2549C4.14138 11.2549 2.14207 9.24488 2.14207 6.75488C2.14207 4.26488 4.14138 2.25488 6.61814 2.25488C9.09489 2.25488 11.0942 4.26488 11.0942 6.75488C11.0942 9.24488 9.09489 11.2549 6.61814 11.2549Z" fill="#666666"/>
</svg>
